<svg width="255px" height="195px" viewBox="0 0 255 195" version="1.1" xmlns="http://www.w3.org/2000/svg" xmlns:xlink="http://www.w3.org/1999/xlink">
    <defs>
        <polygon id="" points="0.0431446914 20.2436353 49.9058509 20.2436353 49.9058509 0.0424875345 0.0431446914 0.0424875345 0.0431446914 20.2436353"></polygon>
    </defs>
    <g id="" stroke="none" stroke-width="1" fill="none" fill-rule="evenodd">
        <g id="" transform="translate(-444.000000, -252.000000)">
            <g id="" transform="translate(444.000000, 209.000000)">
                <g id="" transform="translate(103.000000, 115.000000)">
                    <g id="">
                        <g id="">
                            <g id="" transform="translate(0.000000, 29.918589)">
                                <g id=""></g>
                                <path d="M24.9661034,20.2355137 L24.9661034,20.2437076 C24.9661034,20.2437076 24.9355158,20.2405746 24.9661034,20.2405746 L24.9661034,20.2437076 L24.9661034,20.2355137 C36.0415941,20.220331 43.9934643,17.1546252 49.9058509,13.3035146 L49.9058509,0.0424875345 C42.3766883,4.94048329 33.6267793,7.25524659 24.9661034,7.26151248 L24.9796724,7.26151248 C16.3203764,7.25524659 7.56931753,4.94048329 0.0431446914,0.0424875345 L0.0431446914,13.3035146 C5.95530131,17.1546252 13.9087814,20.220331 24.9796724,20.2355137 L24.9796724,20.2405746 C25.0134798,20.2405746 24.9796724,20.2437076 24.9796724,20.2437076 L24.9796724,20.2355137 L24.9661034,20.2355137 Z" id="" fill="#000000"></path>
                            </g>
                            <path d="M24.9992265,0 C15.6093838,0 8,6.2409607 8,15.9562376 C8,25.6738018 15.6093838,31.9131615 24.9992265,31.9131615 C34.387743,31.9131615 42,25.6738018 42,15.9562376 C42,6.2409607 34.387743,0 24.9992265,0 M24.9992108,20.9430122 C21.6844805,20.9430122 19,18.7993911 19,15.4575967 C19,12.1178477 21.6844805,9.97286296 24.9992108,9.97286296 C28.3125881,9.97286296 31,12.1178477 31,15.4575967 C31,18.7993911 28.3125881,20.9430122 24.9992108,20.9430122" id="" fill="#000000"></path>
                        </g>
                    </g>
                </g>
                <g id="Group-6" transform="translate(0.000000, 180.000000)">
                    <path d="M204,10.7347322 C204,12.5060877 200.337722,15.86599 200.337722,15.86599 L200.059851,16.2867657 C197.983623,14.9093949 195.617036,14.0237171 193.22235,14.0237171 C185.03452,14.0237171 169.967041,21.7001167 158.895909,27 L158.881859,26.9858165 L158.714824,26.4515732 L158.143471,24.5115921 C158.046685,24.5541425 157.963948,24.5951169 157.8656,24.6376672 C156.418485,22.2485435 153.925451,20.1241775 151,19.1975253 C160.330535,14.5154101 181.44093,5.66020813 191.996907,6.01006662 C198.846897,6.23700186 204,8.94919311 204,10.7347322" id="" fill="#EDF5FF"></path>
                    <path d="M158.297799,23.3817975 C145.543089,29.1928803 134.868935,33.1778459 122.284035,33.5543166 C134.572166,35.1851689 150.413589,29.8208521 159.330935,25.7093549 C170.600214,20.4700077 185.917926,12.862488 194.241735,12.862488 C196.676191,12.862488 199.083668,13.7388368 201.19279,15.1056909 C202.622676,16.0101579 203.911319,17.1395699 205,18.3517743 C176.1071,39.0170468 156.47275,51.2093858 129.928608,56.9501732 C93.3911342,63.6110487 78.0734216,36.3973732 54.5445771,36.3973732 C49.6486858,36.3973732 1,40.4791902 1,40.4791902 L0.834761378,1.92296852 C0.834761378,1.92296852 32.8011063,1.74176271 48.8837523,1.74176271 C57.8153817,1.74176271 64.101484,0 78.9653149,0 C93.8291458,0 103.809781,13.3498692 118.830725,17.0146004 C128.527288,19.3827728 143.278442,16.0945123 150.456438,17.7534827 C150.753206,17.8222159 151.035692,17.8925113 151.318178,17.9893627 C154.292214,18.9094508 156.826651,21.0136251 158.297799,23.3817975 Z" id="Fill-5" fill="#96C3FF"></path>
                    <path d="M157.830406,25.716907 L158,26.2225816 C149.092358,30.1486452 133.272575,35.2710245 121,33.7137257 C133.568968,33.3542343 144.229609,29.5489956 156.968172,24 C157.321624,24.5593746 157.618017,25.1306824 157.830406,25.716907" id="" fill="#EDF5FF"></path>
                </g>
                <g id="Group-11" transform="translate(57.000000, 43.000000)">
                    <path d="M47.410624,34.6097923 C60.0710776,28.8001126 70.6766519,24.8161092 83.1841329,24.453785 C70.9731349,22.8233266 55.2311508,28.1879098 46.3823958,32.2968526 L46.5795255,32.9231111 C46.4817492,32.7013438 46.4092055,32.4920704 46.3682025,32.270303 C35.1696622,37.5208791 19.9496775,45.1421793 11.6923113,45.1421793 C9.25894315,45.1421793 6.86657791,44.2504247 4.75650231,42.8839006 C3.34978524,41.9796521 2.07080817,40.8505127 1,39.6386011 C29.6989206,18.9939355 49.2100233,6.80297865 75.5859683,1.04952168 C111.909863,-5.60974557 127.117232,21.5989209 150.495229,21.5989209 C155.36512,21.5989209 198,19.620194 198,19.620194 L197.367608,56.1196628 C197.367608,56.1196628 172.103791,56.2586578 156.123675,56.2586578 C147.260726,56.2586578 140.999889,58 126.230937,58 C111.458831,58 101.540844,44.6549159 86.6157656,40.9770138 C76.9926854,38.6078514 62.3215095,41.895318 55.1885708,40.2383099 C54.9078582,40.1680316 54.6271456,40.0993149 54.344856,40.0149808 C51.3910656,39.0810592 48.858344,36.9914486 47.410624,34.6097923 Z" id="Fill-1" fill="#96C3FF"></path>
                    <path d="M46,32.7878599 C54.8968074,28.8579878 70.7242768,23.7271969 83,25.2865988 C70.4261838,25.6331326 59.7630169,29.4435103 47.0322263,35 C46.6786372,34.4801994 46.3964003,33.9335125 46.1982001,33.3868256 L46,32.7878599 Z" id="" fill="#EDF5FF"></path>
                    <path d="M46.1375777,35.3624095 C47.5703054,37.7657947 50.0767985,39.8744697 53,40.8169119 C43.6732236,45.4834191 22.553756,54.3546685 12.000265,53.9890387 C5.15032834,53.7652481 0,51.0513928 0,49.2657958 C0,47.4943827 3.66141524,44.1343714 3.66141524,44.1343714 L3.92673518,43.712006 C6.01495922,45.0909975 8.38098884,45.990888 10.7907182,45.990888 C18.9610118,45.990888 34.0249418,38.3000554 45.0934656,33 L45.107512,33 C45.1480903,33.2253666 45.2183221,33.4365493 45.3166465,33.6603399 L45.8582114,35.4884887 C45.9565358,35.4459369 46.0408139,35.4049612 46.1375777,35.3624095" id="" fill="#EDF5FF"></path>
                </g>
            </g>
        </g>
    </g>
</svg>